PathFileType	4	(X/Y/Z)	C:/Users/DISI/Documents/SIV_Franzin_Parola/Rigid-Body Object Trackig/Logs/Alza_001.trc
DataRate	CameraRate	NumFrames	NumMarkers	Units	OrigDataRate	OrigDataStartFrame	OrigNumFrames
360	360	53	25	m	360	5257	10514
Frame#	Time	Marker1			Marker2			Marker3			Marker4			Marker5			Marker6			Unlabeled 1323			Unlabeled 1324			Unlabeled 1325			Unlabeled 1326			Unlabeled 1328			Unlabeled 1329			Unlabeled 1330			Unlabeled 1331			Unlabeled 1332			Unlabeled 1333			Unlabeled 1334			Unlabeled 1335			Unlabeled 1336			Unlabeled 1337			Unlabeled 1338			Unlabeled 1340			Unlabeled 1341			Unlabeled 1342			Unlabeled 1344			
		X1	Y1	Z1	X2	Y2	Z2	X3	Y3	Z3	X4	Y4	Z4	X5	Y5	Z5	X6	Y6	Z6	X7	Y7	Z7	X8	Y8	Z8	X9	Y9	Z9	X10	Y10	Z10	X11	Y11	Z11	X12	Y12	Z12	X13	Y13	Z13	X14	Y14	Z14	X15	Y15	Z15	X16	Y16	Z16	X17	Y17	Z17	X18	Y18	Z18	X19	Y19	Z19	X20	Y20	Z20	X21	Y21	Z21	X22	Y22	Z22	X23	Y23	Z23	X24	Y24	Z24	X25	Y25	Z25
5257	14.6028	0.144314	0.140173	0.0872358	0.0772339	0.143664	0.083886	0.164061	0.137741	0.209056	0.0740996	0.144258	0.209876	0.162577	0.139889	0.135121	0.17681	0.138566	0.166977																																																									
5258	14.6056	0.144308	0.140156	0.0872395	0.0772362	0.143661	0.0838663	0.164063	0.13774	0.209043	0.0740238	0.14444	0.209944	0.161809	0.140202	0.134706	0.176817	0.138581	0.166964																																																									
5259	14.6083																																																																											
5260	14.6111	0.144303	0.140166	0.0872289	0.0772449	0.143654	0.0838867	0.164071	0.137753	0.209056	0.0740194	0.144455	0.209943	0.161799	0.140227	0.134695	0.176773	0.138594	0.166971																																																									
5261	14.6139																																																																											
5262	14.6167																																																																											
5263	14.6194	0.144312	0.140167	0.0872224	0.0772517	0.143667	0.0838715	0.164082	0.137731	0.209045	0.0741063	0.144269	0.209863	0.161659	0.140355	0.134741	0.176784	0.138589	0.166984																																																									
5264	14.6222	0.14431	0.140168	0.0872205	0.0772285	0.143669	0.0838816	0.164049	0.137743	0.209047	0.074112	0.144256	0.209877	0.16178	0.140232	0.13469	0.176799	0.138591	0.166978																																																									
5265	14.625																																																																											
5266	14.6278	0.144303	0.140166	0.087221	0.0772562	0.143674	0.0838762	0.164069	0.137743	0.209047	0.0741112	0.144267	0.209874	0.161648	0.140368	0.134745	0.176787	0.138591	0.166974																																																									
5267	14.6306																																																																											
5268	14.6333																																																																											
5269	14.6361	0.144308	0.140172	0.0872215	0.0772582	0.143663	0.0838703	0.164075	0.137764	0.209045	0.0741203	0.144267	0.209874	0.161669	0.140352	0.134759	0.17677	0.138594	0.166984																																																									
5270	14.6389																																																																											
5271	14.6417																																																																											
5272	14.6444	0.144311	0.140159	0.0872151	0.0772436	0.143661	0.0838577	0.164063	0.137758	0.20904	0.0741038	0.144285	0.20987	0.162589	0.13987	0.135132	0.176807	0.13857	0.166988																																																									
5273	14.6472																																																																											
5274	14.65																																																																											
5275	14.6528	0.144317	0.140163	0.0872194	0.077241	0.143656	0.0838892	0.164074	0.137749	0.209046	0.0740212	0.14447	0.209941	0.162569	0.139863	0.13513	0.176803	0.138582	0.166992																																																									
5276	14.6556	0.144326	0.140158	0.0872264	0.0772387	0.143662	0.0838534	0.164049	0.137747	0.209025	0.0741228	0.14426	0.209868	0.161723	0.140317	0.134765	0.176824	0.138563	0.166988																																																									
5277	14.6583																																																																											
5278	14.6611	0.144324	0.140151	0.0872199	0.0772484	0.143644	0.083862	0.164047	0.137743	0.209008	0.0740182	0.144461	0.20993	0.162579	0.139876	0.135137	0.176813	0.138567	0.166988																																																									
5279	14.6639	0.144305	0.140151	0.0872245	0.0772363	0.143679	0.0838894	0.164049	0.137738	0.209014	0.0740924	0.144285	0.209864	0.162579	0.139882	0.135125	0.176812	0.138569	0.166983																																																									
5280	14.6667																																																																											
5281	14.6694	0.144306	0.140174	0.0872299	0.0772464	0.143653	0.083869	0.164066	0.137745	0.209041	0.074096	0.144271	0.209859	0.161651	0.140344	0.134764	0.176793	0.138603	0.16698																																																									
5282	14.6722	0.144313	0.14016	0.0872197	0.0772511	0.143655	0.0838793	0.164054	0.137732	0.209024	0.0741033	0.144267	0.209875	0.161661	0.140343	0.134746	0.176782	0.138597	0.166991																																																									
5283	14.675	0.144309	0.140169	0.0872245	0.0772547	0.143646	0.0838718	0.164048	0.137729	0.209023	0.0741053	0.144252	0.209873	0.161633	0.140339	0.134758	0.176765	0.138601	0.166993																																																									
5284	14.6778	0.144306	0.140174	0.0872181	0.0772472	0.143652	0.08388	0.164061	0.137744	0.209047	0.0741114	0.144253	0.209877	0.161653	0.140368	0.134756	0.176778	0.138614	0.16699																																																									
5285	14.6806																																																																											
5286	14.6833	0.144291	0.14017	0.0872142	0.0772468	0.143649	0.0838661	0.164049	0.137757	0.209039	0.0740943	0.14426	0.209868	0.161653	0.140352	0.134746	0.176761	0.138608	0.16699																																																									
5287	14.6861																																																																											
5288	14.6889																																																																											
5289	14.6917	0.144314	0.140188	0.0872293	0.0772292	0.143665	0.0838916	0.164065	0.137763	0.209055	0.074094	0.144257	0.209869	0.161621	0.140373	0.134758	0.176737	0.138625	0.16699																																																									
5290	14.6944	0.144312	0.140187	0.0872359	0.0772583	0.14365	0.083901	0.164069	0.137766	0.209063	0.0741134	0.144255	0.209876	0.161617	0.140382	0.134749	0.176768	0.138618	0.166985																																																									
5291	14.6972																																																																											
5292	14.7	0.144301	0.140179	0.0872305	0.0772597	0.143662	0.0838901	0.164066	0.13776	0.209049	0.0741226	0.144269	0.209871	0.161635	0.140381	0.134757	0.176763	0.138606	0.166986																																																									
5293	14.7028	0.144308	0.140173	0.0872273	0.0772469	0.143661	0.0838856	0.164065	0.137742	0.209023	0.0741039	0.144271	0.209872	0.161649	0.140366	0.134747	0.176788	0.138606	0.166987																																																									
5294	14.7056																																																																											
5295	14.7083	0.144316	0.140172	0.0872263	0.0772357	0.143672	0.0838716	0.164069	0.13777	0.209032	0.0740921	0.144286	0.209874	0.16178	0.140235	0.134724	0.17677	0.138606	0.166995																																																									
5296	14.7111																																																																											
5297	14.7139																																																																											
5298	14.7167	0.144325	0.140158	0.0872229	0.0772386	0.143667	0.0838779	0.164066	0.137764	0.209031	0.0741312	0.144265	0.20987	0.162573	0.139883	0.135136	0.176809	0.138577	0.166986																																																									
5299	14.7194																																																																											
5300	14.7222																																																																											
5301	14.725	0.144337	0.140147	0.0872249	0.0772502	0.143661	0.0838707	0.164067	0.137747	0.209037	0.0741113	0.144267	0.209879	0.162579	0.139882	0.135144	0.176823	0.138561	0.166979																																																									
5302	14.7278	0.144317	0.140164	0.0872286	0.0772296	0.143675	0.0838759	0.164074	0.137755	0.209048	0.0741082	0.144269	0.209872	0.162587	0.139871	0.135129	0.176837	0.138551	0.166983																																																									
5303	14.7306																																																																											
5304	14.7333	0.144324	0.140152	0.0872323	0.0772475	0.143673	0.0838664	0.164071	0.137756	0.209037	0.074106	0.144264	0.209878	0.162593	0.139877	0.135131	0.176824	0.13856	0.166987																																																									
5305	14.7361	0.144316	0.140164	0.0872234	0.0772408	0.14366	0.0838804	0.164067	0.137761	0.209049	0.0741111	0.144262	0.209878	0.162585	0.139865	0.135118	0.176825	0.138567	0.166971																																																									
5306	14.7389																																																																											
5307	14.7417	0.144321	0.140153	0.0872259	0.0772414	0.143654	0.0838602	0.164065	0.137752	0.209031	0.0741085	0.14423	0.209844	0.161825	0.140206	0.134713	0.176807	0.138573	0.166983																																																									
5308	14.7444	0.144324	0.140167	0.087222	0.0772257	0.14367	0.0838717	0.164062	0.137773	0.209053	0.0741105	0.144263	0.209863	0.161688	0.140342	0.134746	0.176819	0.13857	0.166979																																																									
5309	14.7472																																																																											
